<?xml version="1.0" encoding="utf-8" ?>
<!-- Generator: Assembly 1.0 - http://assemblyapp.co -->
<svg version="1.1" xmlns="http://www.w3.org/2000/svg" xmlns:xlink="http://www.w3.org/1999/xlink" width="300" height="300" viewBox="0 0 300 300">
	<rect x="0" y="0" width="300" height="300" fill="transparent" />
	<g id="widget" transform="matrix(1,0,0,1,150,150)">
		<path d="M17.7827,42.6503 L7.02988,48.8584 L-24.1184,-5.09206 L-13.3656,-11.3002 L17.7827,42.6503 Z" fill="#dce8eb" fill-opacity="1" />
		<path d="M0,-35.8852 C0,-16.0766 -16.0766,0 -35.8852,0 C-55.6938,0 -71.7703,-16.0766 -71.7703,-35.8852 C-71.7703,-55.6938 -55.6938,-71.7703 -35.8852,-71.7703 C-16.0766,-71.7703 0,-55.6938 0,-35.8852 Z M-35.8852,-57.4163 C-47.799,-57.4163 -57.4163,-47.799 -57.4163,-35.8852 C-57.4163,-23.9713 -47.799,-14.3541 -35.8852,-14.3541 C-23.9713,-14.3541 -14.3541,-23.9713 -14.3541,-35.8852 C-14.3541,-47.799 -23.9713,-57.4163 -35.8852,-57.4163 Z" fill="#dce8eb" fill-opacity="1" />
	</g>
</svg>
