<?xml version="1.0" encoding="utf-8"?>
<!-- Svg Vector Icons : http://www.onlinewebfonts.com/icon -->
<!DOCTYPE svg PUBLIC "-//W3C//DTD SVG 1.1//EN" "http://www.w3.org/Graphics/SVG/1.1/DTD/svg11.dtd">
<svg version="1.1" xmlns="http://www.w3.org/2000/svg" xmlns:xlink="http://www.w3.org/1999/xlink" x="0px" y="0px" viewBox="0 0 1000 1000" enable-background="new 0 0 1000 1000" xml:space="preserve">
<metadata> Svg Vector Icons : http://www.onlinewebfonts.com/icon </metadata>
<g><path d="M980.7,936.7l-253-249c66.2-72,107-167.2,107-271.9C834.7,191.6,650,10,422.3,10C194.6,10,10,191.6,10,415.8c0,224.1,184.6,405.7,412.3,405.7c98.4,0,188.7-34,259.5-90.6l254,249.9c12.4,12.2,32.4,12.2,44.8,0C993.1,968.7,993.1,948.9,980.7,936.7z M422.3,759.1c-192.7,0-348.9-153.7-348.9-343.3c0-189.6,156.2-343.4,348.9-343.4c192.7,0,348.9,153.7,348.9,343.4C771.2,605.4,615,759.1,422.3,759.1z"/></g>
</svg>